
        <svg xmlns="http://www.w3.org/2000/svg" xmlns:xlink="http://www.w3.org/1999/xlink" version="1.1" width="120"
        height="30" viewBox="0 0 3194.3021870156454 1219.4873234204777">

			<g transform="scale(9.715109350782276) translate(10, 10)">
				<defs id="SvgjsDefs1269"></defs><g id="SvgjsG1270" featureKey="G09qjj-0" transform="matrix(1.1724979666993116,0,0,1.1724979666993116,-8.624894980421988,-5.862489833496558)" fill="#005792"><rect xmlns="http://www.w3.org/2000/svg" x="77.874" y="14.119" transform="matrix(0.7071 0.7071 -0.7071 0.7071 37.4723 -50.5973)" width="3.876" height="11.631"></rect><rect xmlns="http://www.w3.org/2000/svg" x="16.31" y="17.996" transform="matrix(0.7071 0.7071 -0.7071 0.7071 20.578 -9.8068)" width="11.631" height="3.876"></rect><rect xmlns="http://www.w3.org/2000/svg" x="48.062" y="5" width="3.877" height="11.63"></rect><rect xmlns="http://www.w3.org/2000/svg" x="7.356" y="43.767" width="11.63" height="3.877"></rect><rect xmlns="http://www.w3.org/2000/svg" x="81.014" y="43.767" width="11.63" height="3.877"></rect><path xmlns="http://www.w3.org/2000/svg" d="M50,20.45c-14.172,0-25.701,11.53-25.701,25.7v0.767c0,6.262,3.559,12.902,6.699,18.763  c2.527,4.715,4.914,9.169,4.914,12.308l-0.039,2.595C35.874,88.532,42.262,95,50.113,95c7.852,0,14.24-6.468,14.24-14.417  l-0.275-2.762c-0.33-3.25,2.244-7.947,4.97-12.919c3.192-5.825,6.494-11.846,6.654-17.86v-0.892C75.701,31.98,64.172,20.45,50,20.45  z M50.113,91.123c-5.714,0-10.362-4.729-10.362-10.511l0.039-2.595c0-1.035-0.163-2.116-0.451-3.235h21.107  c-0.245,1.187-0.337,2.335-0.225,3.436l0.255,2.463C60.424,86.448,55.795,91.123,50.113,91.123z M65.647,63.038  c-1.488,2.714-2.933,5.354-3.966,7.867h-23.72c-0.977-2.258-2.243-4.625-3.546-7.057c-3.067-5.722-6.239-11.642-6.239-16.931v-0.767  c0-12.033,9.79-21.824,21.824-21.824c12.033,0,21.824,9.79,21.824,21.824l0.001,0.84C71.69,52.015,68.618,57.618,65.647,63.038z"></path></g><g id="SvgjsG1271" featureKey="0yvIkK-0" transform="matrix(4.942338845947364,0,0,4.942338845947364,112.58649349859706,-17.0329465375263)" fill="#005792"><path d="M6 10.52 q1.8 0 2.65 0.97 t0.87 3.05 l0 5.46 l-1.2 0 l0 -5.4 q0 -1.54 -0.57 -2.27 t-1.75 -0.73 q-1.46 0 -2.32 1.01 t-0.88 2.81 l0 4.58 l-1.2 0 l0 -6.74 q-0.02 -0.58 -0.1 -2.5 l1.2 0 q0.04 1.58 0.08 1.62 l0.06 0 q0.4 -0.84 1.27 -1.35 t1.89 -0.51 z M13.4 15.379999999999999 q0 1.66 1.04 2.72 t2.62 1.06 q1.64 0 2.65 -1.08 t1.01 -2.7 q0 -1.6 -1 -2.68 t-2.68 -1.1 q-1.62 0 -2.62 1.08 t-1.02 2.7 z M17.060000000000002 10.52 q2.12 0 3.48 1.38 t1.38 3.48 q0 2.14 -1.39 3.49 t-3.47 1.37 q-2.18 -0.02 -3.51 -1.4 t-1.35 -3.46 q0 -2.14 1.37 -3.49 t3.49 -1.37 z M25.28 8.1 l1.2 0 l0 2.66 l2.64 0 l0 1.08 l-2.64 0 l0 6.04 q0 0.58 0.34 0.93 t0.94 0.35 q0.66 0 1.36 -0.32 l0.1 1.08 q-0.9 0.32 -1.58 0.32 q-1.18 0 -1.77 -0.66 t-0.59 -1.7 l0 -6.04 l-2 0 l0 -1.08 l2 0 l0 -2.66 z M38.5 14.6 q0 -1.26 -0.94 -2.13 t-2.28 -0.87 q-1.3 0 -2.24 0.87 t-1.1 2.13 l6.56 0 z M35.36 10.52 q1.92 0 3.12 1.24 t1.22 3.2 l0 0.72 l-7.76 0 q0.08 1.56 1.03 2.51 t2.47 0.97 q0.94 0 1.79 -0.45 t1.31 -1.19 l0.88 0.74 q-1.3 1.98 -4 1.98 q-2.12 -0.02 -3.39 -1.38 t-1.29 -3.5 q0 -2.08 1.31 -3.45 t3.31 -1.39 z"></path></g>
			</g>
		</svg>
